ffmpeg started on 2025-06-21 at 12:34:59
Report written to "D:\Convert\FFMetrics\reports\psnr_report-6.txt"
Log level: 32
Command line:
ffmpeg -hide_banner -nostdin -i "G:\\\xc0\xed\xe8\xec\xe5\\[\xd2\xee\xef-4]\\\xc4\xe5\xf0\xe6\xe0\xf1\xfc \xc7\xe0 \xd0\xf3\xea\xe8\\Hand_Shakers_[06]_[AniLibria.TV]_[HDTV-Rip_720p]_HEVC.mkv" -i "G:\\\xc0\xed\xe8\xec\xe5\\[\xd2\xee\xef-4]\\\xc4\xe5\xf0\xe6\xe0\xf1\xfc \xc7\xe0 \xd0\xf3\xea\xe8\\Hand_Shakers_[06]_[AniLibria.TV]_[HDTV-Rip_720p].mkv" -lavfi "[0:v]settb=AVTB,setpts=PTS-STARTPTS,format=pix_fmts=yuv420p10,fps=30000/1001,scale=1280:720:flags=bicubic[main];[1:v]settb=AVTB,setpts=PTS-STARTPTS,format=pix_fmts=yuv420p,fps=30000/1001,scale=1280:720:flags=bicubic[ref];[main][ref]psnr=eof_action=endall:stats_file='D\\:/Convert/FFMetrics/logs/psnr_logfile-6.txt'" -f null -
Input #0, matroska,webm, from 'G:\Аниме\[Топ-4]\Держась За Руки\Hand_Shakers_[06]_[AniLibria.TV]_[HDTV-Rip_720p]_HEVC.mkv':
  Metadata:
    ENCODER         : Lavf61.7.100
  Duration: 00:23:59.87, start: -0.021000, bitrate: 2538 kb/s
  Stream #0:0(jpn): Video: hevc (Main 10), yuv420p10le(tv, bt709, progressive), 1280x720 [SAR 1:1 DAR 16:9], 29.97 fps, 29.97 tbr, 1k tbn (default)
      Metadata:
        ENCODER         : Lavc61.19.100 libx265
        BPS             : 2339871
        DURATION        : 00:23:59.738366664
        NUMBER_OF_FRAMES: 43149
        NUMBER_OF_BYTES : 421100211
        _STATISTICS_WRITING_APP: mkvpropedit v66.0.0 ('Josie') 64-bit
        _STATISTICS_WRITING_DATE_UTC: 2025-06-20 16:28:51
        _STATISTICS_TAGS: BPS DURATION NUMBER_OF_FRAMES NUMBER_OF_BYTES
  Stream #0:1(rus): Audio: aac (LC), 48000 Hz, stereo, fltp (default) (forced)
      Metadata:
        title           : Амикири и Анзен
        ENCODER         : Lavc61.19.100 aac
        BPS             : 194049
        DURATION        : 00:23:59.850000000
        NUMBER_OF_FRAMES: 67494
        NUMBER_OF_BYTES : 34925236
        _STATISTICS_WRITING_APP: mkvpropedit v66.0.0 ('Josie') 64-bit
        _STATISTICS_WRITING_DATE_UTC: 2025-06-20 16:28:51
        _STATISTICS_TAGS: BPS DURATION NUMBER_OF_FRAMES NUMBER_OF_BYTES
  Stream #0:2(rus): Subtitle: ass (ssa) (default) (forced)
      Metadata:
        title           : Надписи
        BPS             : 9
        DURATION        : 00:23:45.420000000
        NUMBER_OF_FRAMES: 14
        NUMBER_OF_BYTES : 1689
        _STATISTICS_WRITING_APP: mkvpropedit v66.0.0 ('Josie') 64-bit
        _STATISTICS_WRITING_DATE_UTC: 2025-06-20 16:28:51
        _STATISTICS_TAGS: BPS DURATION NUMBER_OF_FRAMES NUMBER_OF_BYTES
  Stream #0:3(rus): Subtitle: ass (ssa)
      Metadata:
        title           : Субтитры
        BPS             : 95
        DURATION        : 00:21:01.540000000
        NUMBER_OF_FRAMES: 245
        NUMBER_OF_BYTES : 15131
        _STATISTICS_WRITING_APP: mkvpropedit v66.0.0 ('Josie') 64-bit
        _STATISTICS_WRITING_DATE_UTC: 2025-06-20 16:28:51
        _STATISTICS_TAGS: BPS DURATION NUMBER_OF_FRAMES NUMBER_OF_BYTES
Input #1, matroska,webm, from 'G:\Аниме\[Топ-4]\Держась За Руки\Hand_Shakers_[06]_[AniLibria.TV]_[HDTV-Rip_720p].mkv':
  Metadata:
    encoder         : libebml v1.4.2 + libmatroska v1.6.4
    creation_time   : 2024-12-27T17:06:19.000000Z
  Duration: 00:23:59.85, start: 0.000000, bitrate: 5637 kb/s
  Stream #1:0(jpn): Video: h264 (High), yuv420p(tv, bt709, progressive), 1280x720 [SAR 1:1 DAR 16:9], 29.97 fps, 29.97 tbr, 1k tbn (default)
      Metadata:
        BPS             : 5442275
        DURATION        : 00:23:59.738000000
        NUMBER_OF_FRAMES: 43149
        NUMBER_OF_BYTES : 979431394
        _STATISTICS_WRITING_APP: mkvmerge v66.0.0 ('Josie') 64-bit
        _STATISTICS_WRITING_DATE_UTC: 2024-12-27 17:06:19
        _STATISTICS_TAGS: BPS DURATION NUMBER_OF_FRAMES NUMBER_OF_BYTES
  Stream #1:1(rus): Audio: aac (LC), 48000 Hz, stereo, fltp (default) (forced)
      Metadata:
        title           : Амикири и Анзен
        BPS             : 189375
        DURATION        : 00:23:59.850000000
        NUMBER_OF_FRAMES: 67493
        NUMBER_OF_BYTES : 34083965
        _STATISTICS_WRITING_APP: mkvmerge v66.0.0 ('Josie') 64-bit
        _STATISTICS_WRITING_DATE_UTC: 2024-12-27 17:06:19
        _STATISTICS_TAGS: BPS DURATION NUMBER_OF_FRAMES NUMBER_OF_BYTES
  Stream #1:2(rus): Subtitle: ass (ssa) (default) (forced)
      Metadata:
        title           : Надписи
        BPS             : 9
        DURATION        : 00:23:45.420000000
        NUMBER_OF_FRAMES: 14
        NUMBER_OF_BYTES : 1689
        _STATISTICS_WRITING_APP: mkvmerge v66.0.0 ('Josie') 64-bit
        _STATISTICS_WRITING_DATE_UTC: 2024-12-27 17:06:19
        _STATISTICS_TAGS: BPS DURATION NUMBER_OF_FRAMES NUMBER_OF_BYTES
  Stream #1:3(rus): Subtitle: ass (ssa)
      Metadata:
        title           : Субтитры
        BPS             : 95
        DURATION        : 00:21:01.540000000
        NUMBER_OF_FRAMES: 245
        NUMBER_OF_BYTES : 15131
        _STATISTICS_WRITING_APP: mkvmerge v66.0.0 ('Josie') 64-bit
        _STATISTICS_WRITING_DATE_UTC: 2024-12-27 17:06:19
        _STATISTICS_TAGS: BPS DURATION NUMBER_OF_FRAMES NUMBER_OF_BYTES
  Stream #1:4: Attachment: ttf
      Metadata:
        filename        : 8651.ttf
        mimetype        : application/x-truetype-font
  Stream #1:5: Attachment: ttf
      Metadata:
        filename        : 10254.otf
        mimetype        : application/x-truetype-font
  Stream #1:6: Attachment: ttf
      Metadata:
        filename        : 8289.otf
        mimetype        : application/x-truetype-font
  Stream #1:7: Attachment: ttf
      Metadata:
        filename        : 10200.ttf
        mimetype        : application/x-truetype-font
  Stream #1:8: Attachment: ttf
      Metadata:
        filename        : 10322.ttf
        mimetype        : application/x-truetype-font
Stream mapping:
  Stream #0:0 (hevc) -> settb:default
  Stream #1:0 (h264) -> settb:default
  psnr:default -> Stream #0:0 (wrapped_avframe)
  Stream #0:1 -> #0:1 (aac (native) -> pcm_s16le (native))
Output #0, null, to 'pipe:':
  Metadata:
    encoder         : Lavf61.7.100
  Stream #0:0: Video: wrapped_avframe, yuv420p10le(tv, bt709, progressive), 1280x720 [SAR 1:1 DAR 16:9], q=2-31, 200 kb/s, 29.97 fps, 29.97 tbn
      Metadata:
        encoder         : Lavc61.19.100 wrapped_avframe
  Stream #0:1(rus): Audio: pcm_s16le, 48000 Hz, stereo, s16, 1536 kb/s (default) (forced)
      Metadata:
        title           : Амикири и Анзен
        _STATISTICS_TAGS: BPS DURATION NUMBER_OF_FRAMES NUMBER_OF_BYTES
        BPS             : 194049
        DURATION        : 00:23:59.850000000
        NUMBER_OF_FRAMES: 67494
        NUMBER_OF_BYTES : 34925236
        _STATISTICS_WRITING_APP: mkvpropedit v66.0.0 ('Josie') 64-bit
        _STATISTICS_WRITING_DATE_UTC: 2025-06-20 16:28:51
        encoder         : Lavc61.19.100 pcm_s16le
frame=  299 fps=0.0 q=-0.0 size=N/A time=00:00:09.97 bitrate=N/A speed=  19x    frame=  642 fps=610 q=-0.0 size=N/A time=00:00:21.42 bitrate=N/A speed=20.4x    frame=  902 fps=579 q=-0.0 size=N/A time=00:00:30.09 bitrate=N/A speed=19.3x    frame= 1249 fps=600 q=-0.0 size=N/A time=00:00:41.67 bitrate=N/A speed=  20x    frame= 1555 fps=601 q=-0.0 size=N/A time=00:00:51.88 bitrate=N/A speed=  20x    frame= 1857 fps=596 q=-0.0 size=N/A time=00:01:01.96 bitrate=N/A speed=19.9x    frame= 2134 fps=589 q=-0.0 size=N/A time=00:01:11.20 bitrate=N/A speed=19.7x    frame= 2349 fps=567 q=-0.0 size=N/A time=00:01:18.37 bitrate=N/A speed=18.9x    frame= 2599 fps=558 q=-0.0 size=N/A time=00:01:26.71 bitrate=N/A speed=18.6x    frame= 2860 fps=552 q=-0.0 size=N/A time=00:01:35.42 bitrate=N/A speed=18.4x    frame= 3105 fps=546 q=-0.0 size=N/A time=00:01:43.60 bitrate=N/A speed=18.2x    frame= 3311 fps=534 q=-0.0 size=N/A time=00:01:50.47 bitrate=N/A speed=17.8x    frame= 3533 fps=525 q=-0.0 size=N/A time=00:01:57.88 bitrate=N/A speed=17.5x    frame= 3758 fps=519 q=-0.0 size=N/A time=00:02:05.39 bitrate=N/A speed=17.3x    frame= 4004 fps=517 q=-0.0 size=N/A time=00:02:13.60 bitrate=N/A speed=17.2x    frame= 4223 fps=510 q=-0.0 size=N/A time=00:02:20.90 bitrate=N/A speed=  17x    frame= 4619 fps=526 q=-0.0 size=N/A time=00:02:34.12 bitrate=N/A speed=17.5x    frame= 5041 fps=542 q=-0.0 size=N/A time=00:02:48.20 bitrate=N/A speed=18.1x    frame= 5392 fps=549 q=-0.0 size=N/A time=00:02:59.91 bitrate=N/A speed=18.3x    frame= 5655 fps=547 q=-0.0 size=N/A time=00:03:08.68 bitrate=N/A speed=18.3x    frame= 6034 fps=557 q=-0.0 size=N/A time=00:03:21.33 bitrate=N/A speed=18.6x    frame= 6427 fps=565 q=-0.0 size=N/A time=00:03:34.44 bitrate=N/A speed=18.9x    frame= 6731 fps=567 q=-0.0 size=N/A time=00:03:44.59 bitrate=N/A speed=18.9x    frame= 7080 fps=572 q=-0.0 size=N/A time=00:03:56.23 bitrate=N/A speed=19.1x    frame= 7473 fps=579 q=-0.0 size=N/A time=00:04:09.34 bitrate=N/A speed=19.3x    frame= 7891 fps=588 q=-0.0 size=N/A time=00:04:23.29 bitrate=N/A speed=19.6x    frame= 8165 fps=586 q=-0.0 size=N/A time=00:04:32.43 bitrate=N/A speed=19.6x    frame= 8427 fps=583 q=-0.0 size=N/A time=00:04:41.18 bitrate=N/A speed=19.4x    frame= 8762 fps=585 q=-0.0 size=N/A time=00:04:52.35 bitrate=N/A speed=19.5x    frame= 9080 fps=587 q=-0.0 size=N/A time=00:05:02.96 bitrate=N/A speed=19.6x    frame= 9455 fps=591 q=-0.0 size=N/A time=00:05:15.48 bitrate=N/A speed=19.7x    frame= 9720 fps=588 q=-0.0 size=N/A time=00:05:24.32 bitrate=N/A speed=19.6x    frame=10033 fps=589 q=-0.0 size=N/A time=00:05:34.76 bitrate=N/A speed=19.7x    frame=10378 fps=591 q=-0.0 size=N/A time=00:05:46.27 bitrate=N/A speed=19.7x    frame=10712 fps=593 q=-0.0 size=N/A time=00:05:57.42 bitrate=N/A speed=19.8x    frame=11026 fps=594 q=-0.0 size=N/A time=00:06:07.90 bitrate=N/A speed=19.8x    frame=11340 fps=594 q=-0.0 size=N/A time=00:06:18.37 bitrate=N/A speed=19.8x    frame=11905 fps=607 q=-0.0 size=N/A time=00:06:37.23 bitrate=N/A speed=20.3x    frame=12506 fps=622 q=-0.0 size=N/A time=00:06:57.28 bitrate=N/A speed=20.7x    frame=13115 fps=635 q=-0.0 size=N/A time=00:07:17.60 bitrate=N/A speed=21.2x    frame=13665 fps=646 q=-0.0 size=N/A time=00:07:35.95 bitrate=N/A speed=21.5x    frame=14152 fps=653 q=-0.0 size=N/A time=00:07:52.20 bitrate=N/A speed=21.8x    frame=14716 fps=663 q=-0.0 size=N/A time=00:08:11.02 bitrate=N/A speed=22.1x    frame=15269 fps=672 q=-0.0 size=N/A time=00:08:29.47 bitrate=N/A speed=22.4x    frame=15823 fps=682 q=-0.0 size=N/A time=00:08:47.96 bitrate=N/A speed=22.7x    frame=16393 fps=690 q=-0.0 size=N/A time=00:09:06.97 bitrate=N/A speed=  23x    frame=16974 fps=700 q=-0.0 size=N/A time=00:09:26.36 bitrate=N/A speed=23.4x    frame=17528 fps=708 q=-0.0 size=N/A time=00:09:44.85 bitrate=N/A speed=23.6x    frame=18089 fps=715 q=-0.0 size=N/A time=00:10:03.56 bitrate=N/A speed=23.9x    frame=18614 fps=721 q=-0.0 size=N/A time=00:10:21.08 bitrate=N/A speed=24.1x    frame=19031 fps=723 q=-0.0 size=N/A time=00:10:35.00 bitrate=N/A speed=24.1x    frame=19478 fps=726 q=-0.0 size=N/A time=00:10:49.91 bitrate=N/A speed=24.2x    frame=19855 fps=726 q=-0.0 size=N/A time=00:11:02.49 bitrate=N/A speed=24.2x    frame=20313 fps=729 q=-0.0 size=N/A time=00:11:17.77 bitrate=N/A speed=24.3x    frame=20721 fps=730 q=-0.0 size=N/A time=00:11:31.39 bitrate=N/A speed=24.4x    frame=21037 fps=728 q=-0.0 size=N/A time=00:11:41.93 bitrate=N/A speed=24.3x    frame=21350 fps=726 q=-0.0 size=N/A time=00:11:52.37 bitrate=N/A speed=24.2x    frame=21673 fps=724 q=-0.0 size=N/A time=00:12:03.15 bitrate=N/A speed=24.2x    frame=22107 fps=726 q=-0.0 size=N/A time=00:12:17.63 bitrate=N/A speed=24.2x    frame=22547 fps=728 q=-0.0 size=N/A time=00:12:32.31 bitrate=N/A speed=24.3x    frame=22759 fps=723 q=-0.0 size=N/A time=00:12:39.39 bitrate=N/A speed=24.1x    frame=22999 fps=719 q=-0.0 size=N/A time=00:12:47.39 bitrate=N/A speed=  24x    frame=23280 fps=716 q=-0.0 size=N/A time=00:12:56.77 bitrate=N/A speed=23.9x    frame=23755 fps=719 q=-0.0 size=N/A time=00:13:12.62 bitrate=N/A speed=  24x    frame=24178 fps=721 q=-0.0 size=N/A time=00:13:26.73 bitrate=N/A speed=24.1x    frame=24520 fps=720 q=-0.0 size=N/A time=00:13:38.15 bitrate=N/A speed=  24x    frame=24845 fps=718 q=-0.0 size=N/A time=00:13:48.99 bitrate=N/A speed=  24x    frame=25192 fps=718 q=-0.0 size=N/A time=00:14:00.57 bitrate=N/A speed=  24x    frame=25609 fps=719 q=-0.0 size=N/A time=00:14:14.48 bitrate=N/A speed=  24x    frame=25976 fps=719 q=-0.0 size=N/A time=00:14:26.73 bitrate=N/A speed=  24x    frame=26361 fps=719 q=-0.0 size=N/A time=00:14:39.57 bitrate=N/A speed=  24x    frame=26759 fps=720 q=-0.0 size=N/A time=00:14:52.85 bitrate=N/A speed=  24x    frame=27035 fps=718 q=-0.0 size=N/A time=00:15:02.06 bitrate=N/A speed=23.9x    frame=27337 fps=716 q=-0.0 size=N/A time=00:15:12.14 bitrate=N/A speed=23.9x    frame=27598 fps=713 q=-0.0 size=N/A time=00:15:20.85 bitrate=N/A speed=23.8x    frame=27944 fps=712 q=-0.0 size=N/A time=00:15:32.39 bitrate=N/A speed=23.8x    frame=28220 fps=710 q=-0.0 size=N/A time=00:15:41.60 bitrate=N/A speed=23.7x    frame=28494 fps=708 q=-0.0 size=N/A time=00:15:50.74 bitrate=N/A speed=23.6x    frame=28860 fps=708 q=-0.0 size=N/A time=00:16:02.96 bitrate=N/A speed=23.6x    frame=29233 fps=708 q=-0.0 size=N/A time=00:16:15.40 bitrate=N/A speed=23.6x    frame=29625 fps=709 q=-0.0 size=N/A time=00:16:28.48 bitrate=N/A speed=23.7x    frame=29970 fps=708 q=-0.0 size=N/A time=00:16:39.99 bitrate=N/A speed=23.6x    frame=30383 fps=709 q=-0.0 size=N/A time=00:16:53.77 bitrate=N/A speed=23.7x    frame=30804 fps=711 q=-0.0 size=N/A time=00:17:07.82 bitrate=N/A speed=23.7x    frame=31172 fps=711 q=-0.0 size=N/A time=00:17:20.10 bitrate=N/A speed=23.7x    frame=31452 fps=709 q=-0.0 size=N/A time=00:17:29.44 bitrate=N/A speed=23.6x    frame=31909 fps=711 q=-0.0 size=N/A time=00:17:44.69 bitrate=N/A speed=23.7x    frame=32330 fps=712 q=-0.0 size=N/A time=00:17:58.74 bitrate=N/A speed=23.8x    frame=32694 fps=712 q=-0.0 size=N/A time=00:18:10.88 bitrate=N/A speed=23.8x    frame=33007 fps=711 q=-0.0 size=N/A time=00:18:21.33 bitrate=N/A speed=23.7x    frame=33227 fps=708 q=-0.0 size=N/A time=00:18:28.67 bitrate=N/A speed=23.6x    frame=33500 fps=706 q=-0.0 size=N/A time=00:18:37.78 bitrate=N/A speed=23.5x    frame=33740 fps=703 q=-0.0 size=N/A time=00:18:45.79 bitrate=N/A speed=23.5x    frame=34004 fps=701 q=-0.0 size=N/A time=00:18:54.60 bitrate=N/A speed=23.4x    frame=34379 fps=701 q=-0.0 size=N/A time=00:19:07.11 bitrate=N/A speed=23.4x    frame=34719 fps=701 q=-0.0 size=N/A time=00:19:18.45 bitrate=N/A speed=23.4x    frame=35065 fps=701 q=-0.0 size=N/A time=00:19:30.00 bitrate=N/A speed=23.4x    frame=35366 fps=699 q=-0.0 size=N/A time=00:19:40.04 bitrate=N/A speed=23.3x    frame=35757 fps=700 q=-0.0 size=N/A time=00:19:53.09 bitrate=N/A speed=23.4x    frame=36044 fps=699 q=-0.0 size=N/A time=00:20:02.66 bitrate=N/A speed=23.3x    frame=36416 fps=699 q=-0.0 size=N/A time=00:20:15.08 bitrate=N/A speed=23.3x    frame=36749 fps=698 q=-0.0 size=N/A time=00:20:26.19 bitrate=N/A speed=23.3x    frame=37093 fps=698 q=-0.0 size=N/A time=00:20:37.66 bitrate=N/A speed=23.3x    frame=37566 fps=700 q=-0.0 size=N/A time=00:20:53.45 bitrate=N/A speed=23.4x    frame=37961 fps=701 q=-0.0 size=N/A time=00:21:06.63 bitrate=N/A speed=23.4x    frame=38385 fps=702 q=-0.0 size=N/A time=00:21:20.77 bitrate=N/A speed=23.4x    frame=38763 fps=702 q=-0.0 size=N/A time=00:21:33.39 bitrate=N/A speed=23.4x    frame=39138 fps=702 q=-0.0 size=N/A time=00:21:45.90 bitrate=N/A speed=23.4x    frame=39383 fps=700 q=-0.0 size=N/A time=00:21:54.07 bitrate=N/A speed=23.4x    frame=39670 fps=699 q=-0.0 size=N/A time=00:22:03.65 bitrate=N/A speed=23.3x    frame=39999 fps=699 q=-0.0 size=N/A time=00:22:14.63 bitrate=N/A speed=23.3x    frame=40380 fps=699 q=-0.0 size=N/A time=00:22:27.34 bitrate=N/A speed=23.3x    frame=40763 fps=699 q=-0.0 size=N/A time=00:22:40.12 bitrate=N/A speed=23.3x    frame=41228 fps=701 q=-0.0 size=N/A time=00:22:55.64 bitrate=N/A speed=23.4x    frame=41760 fps=704 q=-0.0 size=N/A time=00:23:13.39 bitrate=N/A speed=23.5x    frame=42215 fps=705 q=-0.0 size=N/A time=00:23:28.57 bitrate=N/A speed=23.5x    frame=42614 fps=706 q=-0.0 size=N/A time=00:23:41.88 bitrate=N/A speed=23.6x    [Parsed_psnr_10 @ 00000257565ff5c0] PSNR y:42.698813 u:44.623725 v:44.911036 average:43.284670 min:35.014178 max:inf
[out#0/null @ 0000025753579b40] video:18541KiB audio:269976KiB subtitle:0KiB other streams:0KiB global headers:0KiB muxing overhead: unknown
frame=43149 fps=709 q=-0.0 Lsize=N/A time=00:23:59.73 bitrate=N/A speed=23.7x    
